<svg width="281" height="39" viewBox="0 0 281 39" fill="none" xmlns="http://www.w3.org/2000/svg">
<path d="M3.04595 30.7079C9.69095 26.659 13.1524 24.9503 16.8047 24.1661C20.5511 23.3617 24.565 23.5 32.5589 23.5V19.5C24.8585 19.5 20.2464 19.3359 15.9649 20.2553C11.5893 21.1948 7.62107 23.2362 0.964608 27.2921L3.04595 30.7079ZM32.5589 23.5C36.9496 23.5 40.1447 22.1496 42.7038 20.089C45.1631 18.1088 46.9992 15.4832 48.6935 13.1877C50.4495 10.8088 52.1173 8.68114 54.3666 7.10753C56.5549 5.5766 59.4048 4.5 63.6134 4.5V0.5C58.6392 0.5 54.9776 1.7984 52.0737 3.82997C49.2307 5.81886 47.2254 8.44119 45.4753 10.8123C43.6634 13.2668 42.1603 15.3912 40.1952 16.9735C38.3298 18.4754 36.0153 19.5 32.5589 19.5V23.5ZM63.6134 4.5C67.5445 4.5 69.8651 5.99218 71.6091 8.2529C73.4884 10.6888 74.6823 13.9769 76.1513 17.7291C77.5597 21.3266 79.2109 25.3023 82.0663 28.3388C85.0268 31.4872 89.1464 33.5 95.1687 33.5V29.5C90.1717 29.5 87.1329 27.8878 84.9803 25.5987C82.7225 23.1977 81.3059 19.9234 79.876 16.2709C78.5066 12.7731 77.0918 8.81116 74.7762 5.8096C72.3254 2.63282 68.865 0.5 63.6134 0.5V4.5ZM95.1687 33.5C100.607 33.5 104.063 33.8403 106.452 34.3202C108.793 34.7905 110.155 35.4027 111.431 36.0395C112.745 36.6955 114.168 37.4941 116.35 38.0736C118.518 38.6497 121.368 39 125.722 39V35C121.562 35 119.09 34.6628 117.377 34.2077C115.676 33.7559 114.657 33.1795 113.217 32.4605C111.738 31.7223 110.032 30.9595 107.239 30.3985C104.494 29.8472 100.75 29.5 95.1687 29.5V33.5ZM125.722 39C130.336 39 133.262 37.8331 135.288 35.7321C136.251 34.7337 136.926 33.6091 137.478 32.5363C137.753 32.0007 138.01 31.4535 138.254 30.9351C138.502 30.4064 138.737 29.9042 138.99 29.4057C139.974 27.4685 141.156 25.732 143.554 24.4068C146.025 23.0415 149.997 22 156.777 22V18C149.652 18 144.918 19.0835 141.62 20.9057C138.249 22.768 136.599 25.2815 135.424 27.5943C135.137 28.1583 134.875 28.7186 134.633 29.2358C134.385 29.7633 134.158 30.2454 133.921 30.7059C133.448 31.6253 132.983 32.3601 132.409 32.9554C131.361 34.0419 129.623 35 125.722 35V39ZM156.777 22C163.592 22 167.45 22.9264 169.768 24.1215C171.978 25.2605 172.958 26.7273 173.813 28.407C174.622 29.9976 175.535 32.4296 177.554 34.1709C179.7 36.0214 182.842 37 187.831 37V33C183.304 33 181.282 32.1036 180.166 31.1416C178.924 30.0704 178.477 28.7524 177.378 26.593C176.324 24.5227 174.848 22.2395 171.601 20.566C168.464 18.9486 163.867 18 156.777 18V22ZM187.831 37C193.018 37 196.551 35.5145 199.158 33.111C201.652 30.8111 203.154 27.773 204.507 25.1731C205.921 22.4548 207.213 20.1158 209.264 18.3895C211.234 16.7316 214.09 15.5 218.886 15.5V11.5C213.331 11.5 209.508 12.9559 206.688 15.3292C203.95 17.6342 202.34 20.6702 200.958 23.3269C199.514 26.102 198.324 28.4389 196.446 30.1702C194.681 31.798 192.162 33 187.831 33V37ZM218.886 15.5C223.888 15.5 226.933 16.1964 228.992 17.1213C231.024 18.034 232.254 19.2342 233.595 20.6337C234.929 22.0263 236.459 23.7261 238.918 24.9837C241.394 26.2499 244.644 27 249.439 27V23C245.052 23 242.48 22.3126 240.74 21.4225C238.983 20.5239 237.904 19.3487 236.483 17.8663C235.069 16.3908 233.399 14.716 230.631 13.4725C227.89 12.2411 224.236 11.5 218.886 11.5V15.5ZM249.439 27C249.475 27 249.511 27 249.547 27C249.583 27 249.619 27 249.654 27C249.69 27 249.726 27 249.762 27C249.797 27 249.833 27 249.869 27C249.905 27 249.94 27 249.976 27C250.012 27 250.047 27 250.083 27C250.119 27 250.154 27 250.19 27C250.225 27 250.261 27 250.296 27C250.332 27 250.368 27 250.403 27C250.439 27 250.474 27 250.51 27C250.545 27 250.58 27 250.616 27C250.651 27 250.687 27 250.722 27C250.757 27 250.793 27 250.828 27C250.864 27 250.899 27 250.934 27C250.969 27 251.005 27 251.04 27C251.075 27 251.111 27 251.146 27C251.181 27 251.216 27 251.251 27C251.287 27 251.322 27 251.357 27C251.392 27 251.427 27 251.462 27C251.497 27 251.532 27 251.567 27C251.602 27 251.638 27 251.673 27C251.708 27 251.743 27 251.778 27C251.812 27 251.847 27 251.882 27C251.917 27 251.952 27 251.987 27C252.022 27 252.057 27 252.092 27C252.127 27 252.161 27 252.196 27C252.231 27 252.266 27 252.301 27C252.335 27 252.37 27 252.405 27C252.439 27 252.474 27 252.509 27C252.544 27 252.578 27 252.613 27C252.647 27 252.682 27 252.717 27C252.751 27 252.786 27 252.82 27C252.855 27 252.889 27 252.924 27C252.958 27 252.993 27 253.027 27C253.062 27 253.096 27 253.131 27C253.165 27 253.199 27 253.234 27C253.268 27 253.303 27 253.337 27C253.371 27 253.406 27 253.44 27C253.474 27 253.508 27 253.543 27C253.577 27 253.611 27 253.645 27C253.679 27 253.714 27 253.748 27C253.782 27 253.816 27 253.85 27C253.884 27 253.918 27 253.952 27C253.986 27 254.02 27 254.054 27C254.089 27 254.122 27 254.156 27C254.19 27 254.224 27 254.258 27C254.292 27 254.326 27 254.36 27C254.394 27 254.428 27 254.462 27C254.495 27 254.529 27 254.563 27C254.597 27 254.631 27 254.664 27C254.698 27 254.732 27 254.766 27C254.799 27 254.833 27 254.867 27C254.9 27 254.934 27 254.967 27C255.001 27 255.035 27 255.068 27C255.102 27 255.135 27 255.169 27C255.202 27 255.236 27 255.269 27C255.303 27 255.336 27 255.37 27C255.403 27 255.437 27 255.47 27C255.503 27 255.537 27 255.57 27C255.603 27 255.637 27 255.67 27C255.703 27 255.736 27 255.77 27C255.803 27 255.836 27 255.869 27C255.903 27 255.936 27 255.969 27C256.002 27 256.035 27 256.068 27C256.101 27 256.134 27 256.167 27C256.2 27 256.234 27 256.267 27C256.3 27 256.332 27 256.365 27C256.398 27 256.431 27 256.464 27C256.497 27 256.53 27 256.563 27C256.596 27 256.629 27 256.661 27C256.694 27 256.727 27 256.76 27C256.793 27 256.825 27 256.858 27C256.891 27 256.923 27 256.956 27C256.989 27 257.021 27 257.054 27C257.087 27 257.119 27 257.152 27C257.184 27 257.217 27 257.249 27C257.282 27 257.314 27 257.347 27C257.379 27 257.412 27 257.444 27C257.477 27 257.509 27 257.542 27C257.574 27 257.606 27 257.639 27C257.671 27 257.703 27 257.735 27C257.768 27 257.8 27 257.832 27C257.864 27 257.897 27 257.929 27C257.961 27 257.993 27 258.025 27C258.057 27 258.09 27 258.122 27C258.154 27 258.186 27 258.218 27C258.25 27 258.282 27 258.314 27C258.346 27 258.378 27 258.41 27C258.442 27 258.474 27 258.505 27C258.537 27 258.569 27 258.601 27C258.633 27 258.665 27 258.696 27C258.728 27 258.76 27 258.792 27C258.823 27 258.855 27 258.887 27C258.919 27 258.95 27 258.982 27C259.013 27 259.045 27 259.077 27C259.108 27 259.14 27 259.171 27C259.203 27 259.234 27 259.266 27C259.297 27 259.329 27 259.36 27C259.392 27 259.423 27 259.454 27C259.486 27 259.517 27 259.548 27C259.58 27 259.611 27 259.642 27C259.674 27 259.705 27 259.736 27C259.767 27 259.798 27 259.83 27C259.861 27 259.892 27 259.923 27C259.954 27 259.985 27 260.016 27C260.047 27 260.078 27 260.109 27C260.14 27 260.171 27 260.202 27C260.233 27 260.264 27 260.295 27C260.326 27 260.357 27 260.388 27C260.419 27 260.45 27 260.48 27C260.511 27 260.542 27 260.573 27C260.603 27 260.634 27 260.665 27C260.696 27 260.726 27 260.757 27C260.788 27 260.818 27 260.849 27C260.879 27 260.91 27 260.94 27C260.971 27 261.001 27 261.032 27C261.062 27 261.093 27 261.123 27C261.154 27 261.184 27 261.215 27C261.245 27 261.275 27 261.306 27C261.336 27 261.366 27 261.397 27C261.427 27 261.457 27 261.487 27C261.517 27 261.548 27 261.578 27C261.608 27 261.638 27 261.668 27C261.698 27 261.728 27 261.759 27C261.789 27 261.819 27 261.849 27C261.879 27 261.909 27 261.939 27C261.968 27 261.998 27 262.028 27C262.058 27 262.088 27 262.118 27C262.148 27 262.178 27 262.207 27C262.237 27 262.267 27 262.297 27C262.326 27 262.356 27 262.386 27C262.415 27 262.445 27 262.475 27C262.504 27 262.534 27 262.563 27C262.593 27 262.622 27 262.652 27C262.681 27 262.711 27 262.74 27C262.77 27 262.799 27 262.829 27C262.858 27 262.887 27 262.917 27C262.946 27 262.975 27 263.005 27C263.034 27 263.063 27 263.092 27C263.122 27 263.151 27 263.18 27C263.209 27 263.238 27 263.268 27C263.297 27 263.326 27 263.355 27C263.384 27 263.413 27 263.442 27C263.471 27 263.5 27 263.529 27C263.558 27 263.587 27 263.616 27C263.644 27 263.673 27 263.702 27C263.731 27 263.76 27 263.789 27C263.817 27 263.846 27 263.875 27C263.904 27 263.932 27 263.961 27C263.99 27 264.018 27 264.047 27C264.075 27 264.104 27 264.132 27C264.161 27 264.19 27 264.218 27C264.247 27 264.275 27 264.303 27C264.332 27 264.36 27 264.389 27C264.417 27 264.445 27 264.474 27C264.502 27 264.53 27 264.559 27C264.587 27 264.615 27 264.643 27C264.671 27 264.7 27 264.728 27C264.756 27 264.784 27 264.812 27C264.84 27 264.868 27 264.896 27C264.924 27 264.952 27 264.98 27C265.008 27 265.036 27 265.064 27C265.092 27 265.12 27 265.148 27C265.175 27 265.203 27 265.231 27C265.259 27 265.287 27 265.314 27C265.342 27 265.37 27 265.397 27C265.425 27 265.453 27 265.48 27C265.508 27 265.536 27 265.563 27C265.591 27 265.618 27 265.646 27C265.673 27 265.701 27 265.728 27C265.755 27 265.783 27 265.81 27C265.838 27 265.865 27 265.892 27C265.92 27 265.947 27 265.974 27C266.001 27 266.029 27 266.056 27C266.083 27 266.11 27 266.137 27C266.164 27 266.191 27 266.219 27C266.246 27 266.273 27 266.3 27C266.327 27 266.354 27 266.381 27C266.408 27 266.435 27 266.461 27C266.488 27 266.515 27 266.542 27C266.569 27 266.596 27 266.622 27C266.649 27 266.676 27 266.703 27C266.729 27 266.756 27 266.783 27C266.809 27 266.836 27 266.862 27C266.889 27 266.916 27 266.942 27C266.969 27 266.995 27 267.022 27C267.048 27 267.074 27 267.101 27C267.127 27 267.154 27 267.18 27C267.206 27 267.233 27 267.259 27C267.285 27 267.311 27 267.338 27C267.364 27 267.39 27 267.416 27C267.442 27 267.468 27 267.495 27C267.521 27 267.547 27 267.573 27C267.599 27 267.625 27 267.651 27C267.677 27 267.703 27 267.728 27C267.754 27 267.78 27 267.806 27C267.832 27 267.858 27 267.883 27C267.909 27 267.935 27 267.961 27C267.986 27 268.012 27 268.038 27C268.063 27 268.089 27 268.115 27C268.14 27 268.166 27 268.191 27C268.217 27 268.242 27 268.268 27C268.293 27 268.319 27 268.344 27C268.369 27 268.395 27 268.42 27C268.445 27 268.471 27 268.496 27C268.521 27 268.546 27 268.572 27C268.597 27 268.622 27 268.647 27C268.672 27 268.697 27 268.722 27C268.748 27 268.773 27 268.798 27C268.823 27 268.848 27 268.873 27C268.897 27 268.922 27 268.947 27C268.972 27 268.997 27 269.022 27C269.047 27 269.071 27 269.096 27C269.121 27 269.146 27 269.17 27C269.195 27 269.22 27 269.244 27C269.269 27 269.293 27 269.318 27C269.343 27 269.367 27 269.392 27C269.416 27 269.441 27 269.465 27C269.489 27 269.514 27 269.538 27C269.562 27 269.587 27 269.611 27C269.635 27 269.66 27 269.684 27C269.708 27 269.732 27 269.757 27C269.781 27 269.805 27 269.829 27C269.853 27 269.877 27 269.901 27C269.925 27 269.949 27 269.973 27C269.997 27 270.021 27 270.045 27C270.069 27 270.093 27 270.116 27C270.14 27 270.164 27 270.188 27C270.212 27 270.235 27 270.259 27C270.283 27 270.306 27 270.33 27C270.354 27 270.377 27 270.401 27C270.424 27 270.448 27 270.471 27C270.495 27 270.518 27 270.542 27C270.565 27 270.589 27 270.612 27C270.635 27 270.659 27 270.682 27C270.705 27 270.728 27 270.752 27C270.775 27 270.798 27 270.821 27C270.844 27 270.868 27 270.891 27C270.914 27 270.937 27 270.96 27C270.983 27 271.006 27 271.029 27C271.052 27 271.075 27 271.098 27C271.12 27 271.143 27 271.166 27C271.189 27 271.212 27 271.234 27C271.257 27 271.28 27 271.303 27C271.325 27 271.348 27 271.371 27C271.393 27 271.416 27 271.438 27C271.461 27 271.483 27 271.506 27C271.528 27 271.551 27 271.573 27C271.595 27 271.618 27 271.64 27C271.663 27 271.685 27 271.707 27C271.729 27 271.752 27 271.774 27C271.796 27 271.818 27 271.84 27C271.862 27 271.885 27 271.907 27C271.929 27 271.951 27 271.973 27C271.995 27 272.017 27 272.038 27C272.06 27 272.082 27 272.104 27C272.126 27 272.148 27 272.17 27C272.191 27 272.213 27 272.235 27C272.257 27 272.278 27 272.3 27C272.321 27 272.343 27 272.365 27C272.386 27 272.408 27 272.429 27C272.451 27 272.472 27 272.494 27C272.515 27 272.536 27 272.558 27C272.579 27 272.6 27 272.622 27C272.643 27 272.664 27 272.685 27C272.707 27 272.728 27 272.749 27C272.77 27 272.791 27 272.812 27C272.833 27 272.854 27 272.875 27C272.896 27 272.917 27 272.938 27C272.959 27 272.98 27 273.001 27C273.022 27 273.043 27 273.063 27C273.084 27 273.105 27 273.126 27C273.146 27 273.167 27 273.188 27C273.208 27 273.229 27 273.25 27C273.27 27 273.291 27 273.311 27C273.332 27 273.352 27 273.373 27C273.393 27 273.413 27 273.434 27C273.454 27 273.474 27 273.495 27C273.515 27 273.535 27 273.555 27C273.576 27 273.596 27 273.616 27C273.636 27 273.656 27 273.676 27C273.696 27 273.716 27 273.736 27C273.756 27 273.776 27 273.796 27C273.816 27 273.836 27 273.856 27C273.876 27 273.895 27 273.915 27C273.935 27 273.955 27 273.974 27C273.994 27 274.014 27 274.033 27C274.053 27 274.072 27 274.092 27C274.112 27 274.131 27 274.151 27C274.17 27 274.189 27 274.209 27C274.228 27 274.248 27 274.267 27C274.286 27 274.306 27 274.325 27C274.344 27 274.363 27 274.382 27C274.402 27 274.421 27 274.44 27C274.459 27 274.478 27 274.497 27C274.516 27 274.535 27 274.554 27C274.573 27 274.592 27 274.611 27C274.63 27 274.648 27 274.667 27C274.686 27 274.705 27 274.724 27C274.742 27 274.761 27 274.78 27C274.798 27 274.817 27 274.835 27C274.854 27 274.873 27 274.891 27C274.91 27 274.928 27 274.946 27C274.965 27 274.983 27 275.002 27C275.02 27 275.038 27 275.056 27C275.075 27 275.093 27 275.111 27C275.129 27 275.148 27 275.166 27C275.184 27 275.202 27 275.22 27C275.238 27 275.256 27 275.274 27C275.292 27 275.31 27 275.328 27C275.346 27 275.363 27 275.381 27C275.399 27 275.417 27 275.435 27C275.452 27 275.47 27 275.488 27C275.505 27 275.523 27 275.541 27C275.558 27 275.576 27 275.593 27C275.611 27 275.628 27 275.646 27C275.663 27 275.68 27 275.698 27C275.715 27 275.732 27 275.75 27C275.767 27 275.784 27 275.801 27C275.819 27 275.836 27 275.853 27C275.87 27 275.887 27 275.904 27C275.921 27 275.938 27 275.955 27C275.972 27 275.989 27 276.006 27C276.023 27 276.04 27 276.056 27C276.073 27 276.09 27 276.107 27C276.124 27 276.14 27 276.157 27C276.174 27 276.19 27 276.207 27C276.223 27 276.24 27 276.256 27C276.273 27 276.289 27 276.306 27C276.322 27 276.338 27 276.355 27C276.371 27 276.387 27 276.404 27C276.42 27 276.436 27 276.452 27C276.469 27 276.485 27 276.501 27C276.517 27 276.533 27 276.549 27C276.565 27 276.581 27 276.597 27C276.613 27 276.629 27 276.645 27C276.66 27 276.676 27 276.692 27C276.708 27 276.724 27 276.739 27C276.755 27 276.771 27 276.786 27C276.802 27 276.817 27 276.833 27C276.849 27 276.864 27 276.88 27C276.895 27 276.91 27 276.926 27C276.941 27 276.956 27 276.972 27C276.987 27 277.002 27 277.018 27C277.033 27 277.048 27 277.063 27C277.078 27 277.093 27 277.108 27C277.123 27 277.138 27 277.153 27C277.168 27 277.183 27 277.198 27C277.213 27 277.228 27 277.243 27C277.258 27 277.272 27 277.287 27C277.302 27 277.317 27 277.331 27C277.346 27 277.361 27 277.375 27C277.39 27 277.404 27 277.419 27C277.433 27 277.448 27 277.462 27C277.476 27 277.491 27 277.505 27C277.52 27 277.534 27 277.548 27C277.562 27 277.576 27 277.591 27C277.605 27 277.619 27 277.633 27C277.647 27 277.661 27 277.675 27C277.689 27 277.703 27 277.717 27C277.731 27 277.745 27 277.759 27C277.772 27 277.786 27 277.8 27C277.814 27 277.827 27 277.841 27C277.855 27 277.868 27 277.882 27C277.896 27 277.909 27 277.923 27C277.936 27 277.95 27 277.963 27C277.976 27 277.99 27 278.003 27C278.016 27 278.03 27 278.043 27C278.056 27 278.069 27 278.083 27C278.096 27 278.109 27 278.122 27C278.135 27 278.148 27 278.161 27C278.174 27 278.187 27 278.2 27C278.213 27 278.226 27 278.239 27C278.252 27 278.264 27 278.277 27C278.29 27 278.303 27 278.315 27C278.328 27 278.34 27 278.353 27C278.366 27 278.378 27 278.391 27C278.403 27 278.416 27 278.428 27C278.44 27 278.453 27 278.465 27C278.477 27 278.49 27 278.502 27C278.514 27 278.526 27 278.539 27C278.551 27 278.563 27 278.575 27C278.587 27 278.599 27 278.611 27C278.623 27 278.635 27 278.647 27C278.659 27 278.671 27 278.682 27C278.694 27 278.706 27 278.718 27C278.729 27 278.741 27 278.753 27C278.764 27 278.776 27 278.788 27C278.799 27 278.811 27 278.822 27C278.834 27 278.845 27 278.857 27C278.868 27 278.879 27 278.891 27C278.902 27 278.913 27 278.924 27C278.936 27 278.947 27 278.958 27C278.969 27 278.98 27 278.991 27C279.002 27 279.013 27 279.024 27C279.035 27 279.046 27 279.057 27C279.068 27 279.079 27 279.089 27C279.1 27 279.111 27 279.122 27C279.132 27 279.143 27 279.153 27C279.164 27 279.175 27 279.185 27C279.196 27 279.206 27 279.217 27C279.227 27 279.237 27 279.248 27C279.258 27 279.268 27 279.279 27C279.289 27 279.299 27 279.309 27C279.32 27 279.33 27 279.34 27C279.35 27 279.36 27 279.37 27C279.38 27 279.39 27 279.4 27C279.41 27 279.419 27 279.429 27C279.439 27 279.449 27 279.459 27C279.468 27 279.478 27 279.488 27C279.497 27 279.507 27 279.516 27C279.526 27 279.536 27 279.545 27C279.554 27 279.564 27 279.573 27C279.583 27 279.592 27 279.601 27C279.611 27 279.62 27 279.629 27C279.638 27 279.647 27 279.656 27C279.666 27 279.675 27 279.684 27C279.693 27 279.702 27 279.711 27C279.72 27 279.728 27 279.737 27C279.746 27 279.755 27 279.764 27C279.772 27 279.781 27 279.79 27C279.798 27 279.807 27 279.816 27C279.824 27 279.833 27 279.841 27C279.85 27 279.858 27 279.867 27C279.875 27 279.883 27 279.892 27C279.9 27 279.908 27 279.916 27C279.925 27 279.933 27 279.941 27C279.949 27 279.957 27 279.965 27C279.973 27 279.981 27 279.989 27C279.997 27 280.005 27 280.013 27C280.021 27 280.028 27 280.036 27C280.044 27 280.052 27 280.059 27C280.067 27 280.075 27 280.082 27C280.09 27 280.097 27 280.105 27C280.112 27 280.12 27 280.127 27C280.134 27 280.142 27 280.149 27C280.156 27 280.164 27 280.171 27C280.178 27 280.185 27 280.192 27C280.199 27 280.207 27 280.214 27C280.221 27 280.228 27 280.235 27C280.241 27 280.248 27 280.255 27C280.262 27 280.269 27 280.276 27C280.282 27 280.289 27 280.296 27C280.302 27 280.309 27 280.316 27C280.322 27 280.329 27 280.335 27C280.342 27 280.348 27 280.354 27C280.361 27 280.367 27 280.373 27C280.38 27 280.386 27 280.392 27C280.398 27 280.404 27 280.411 27C280.417 27 280.423 27 280.429 27C280.435 27 280.441 27 280.447 27C280.453 27 280.458 27 280.464 27C280.47 27 280.476 27 280.482 27C280.487 27 280.493 27 280.499 27C280.504 27 280.51 27 280.515 27C280.521 27 280.526 27 280.532 27C280.537 27 280.543 27 280.548 27C280.553 27 280.559 27 280.564 27C280.569 27 280.574 27 280.58 27C280.585 27 280.59 27 280.595 27C280.6 27 280.605 27 280.61 27C280.615 27 280.62 27 280.625 27C280.63 27 280.635 27 280.639 27C280.644 27 280.649 27 280.654 27C280.658 27 280.663 27 280.668 27C280.672 27 280.677 27 280.681 27C280.686 27 280.69 27 280.695 27C280.699 27 280.703 27 280.708 27C280.712 27 280.716 27 280.72 27C280.725 27 280.729 27 280.733 27C280.737 27 280.741 27 280.745 27C280.749 27 280.753 27 280.757 27C280.761 27 280.765 27 280.769 27C280.773 27 280.776 27 280.78 27C280.784 27 280.787 27 280.791 27C280.795 27 280.798 27 280.802 27C280.805 27 280.809 27 280.812 27C280.816 27 280.819 27 280.823 27C280.826 27 280.829 27 280.833 27C280.836 27 280.839 27 280.842 27C280.845 27 280.848 27 280.851 27C280.855 27 280.858 27 280.861 27C280.863 27 280.866 27 280.869 27C280.872 27 280.875 27 280.878 27C280.88 27 280.883 27 280.886 27C280.889 27 280.891 27 280.894 27C280.896 27 280.899 27 280.901 27C280.904 27 280.906 27 280.909 27C280.911 27 280.913 27 280.916 27C280.918 27 280.92 27 280.922 27C280.924 27 280.927 27 280.929 27C280.931 27 280.933 27 280.935 27C280.937 27 280.939 27 280.941 27C280.943 27 280.944 27 280.946 27C280.948 27 280.95 27 280.951 27C280.953 27 280.955 27 280.956 27C280.958 27 280.959 27 280.961 27C280.962 27 280.964 27 280.965 27C280.967 27 280.968 27 280.969 27C280.971 27 280.972 27 280.973 27C280.974 27 280.975 27 280.977 27C280.978 27 280.979 27 280.98 27C280.981 27 280.982 27 280.983 27C280.983 27 280.984 27 280.985 27C280.986 27 280.987 27 280.987 27C280.988 27 280.989 27 280.989 27C280.99 27 280.99 27 280.991 27C280.991 27 280.992 27 280.992 27C280.993 27 280.993 27 280.993 27C280.994 27 280.994 27 280.994 27C280.994 27 280.995 27 280.995 27C280.995 27 280.995 27 280.995 25C280.995 23 280.995 23 280.995 23C280.995 23 280.994 23 280.994 23C280.994 23 280.994 23 280.993 23C280.993 23 280.993 23 280.992 23C280.992 23 280.991 23 280.991 23C280.99 23 280.99 23 280.989 23C280.989 23 280.988 23 280.987 23C280.987 23 280.986 23 280.985 23C280.984 23 280.983 23 280.983 23C280.982 23 280.981 23 280.98 23C280.979 23 280.978 23 280.977 23C280.975 23 280.974 23 280.973 23C280.972 23 280.971 23 280.969 23C280.968 23 280.967 23 280.965 23C280.964 23 280.962 23 280.961 23C280.959 23 280.958 23 280.956 23C280.955 23 280.953 23 280.951 23C280.95 23 280.948 23 280.946 23C280.944 23 280.943 23 280.941 23C280.939 23 280.937 23 280.935 23C280.933 23 280.931 23 280.929 23C280.927 23 280.924 23 280.922 23C280.92 23 280.918 23 280.916 23C280.913 23 280.911 23 280.909 23C280.906 23 280.904 23 280.901 23C280.899 23 280.896 23 280.894 23C280.891 23 280.889 23 280.886 23C280.883 23 280.88 23 280.878 23C280.875 23 280.872 23 280.869 23C280.866 23 280.863 23 280.861 23C280.858 23 280.855 23 280.851 23C280.848 23 280.845 23 280.842 23C280.839 23 280.836 23 280.833 23C280.829 23 280.826 23 280.823 23C280.819 23 280.816 23 280.812 23C280.809 23 280.805 23 280.802 23C280.798 23 280.795 23 280.791 23C280.787 23 280.784 23 280.78 23C280.776 23 280.773 23 280.769 23C280.765 23 280.761 23 280.757 23C280.753 23 280.749 23 280.745 23C280.741 23 280.737 23 280.733 23C280.729 23 280.725 23 280.72 23C280.716 23 280.712 23 280.708 23C280.703 23 280.699 23 280.695 23C280.69 23 280.686 23 280.681 23C280.677 23 280.672 23 280.668 23C280.663 23 280.658 23 280.654 23C280.649 23 280.644 23 280.639 23C280.635 23 280.63 23 280.625 23C280.62 23 280.615 23 280.61 23C280.605 23 280.6 23 280.595 23C280.59 23 280.585 23 280.58 23C280.574 23 280.569 23 280.564 23C280.559 23 280.553 23 280.548 23C280.543 23 280.537 23 280.532 23C280.526 23 280.521 23 280.515 23C280.51 23 280.504 23 280.499 23C280.493 23 280.487 23 280.482 23C280.476 23 280.47 23 280.464 23C280.458 23 280.453 23 280.447 23C280.441 23 280.435 23 280.429 23C280.423 23 280.417 23 280.411 23C280.404 23 280.398 23 280.392 23C280.386 23 280.38 23 280.373 23C280.367 23 280.361 23 280.354 23C280.348 23 280.342 23 280.335 23C280.329 23 280.322 23 280.316 23C280.309 23 280.302 23 280.296 23C280.289 23 280.282 23 280.276 23C280.269 23 280.262 23 280.255 23C280.248 23 280.241 23 280.235 23C280.228 23 280.221 23 280.214 23C280.207 23 280.199 23 280.192 23C280.185 23 280.178 23 280.171 23C280.164 23 280.156 23 280.149 23C280.142 23 280.134 23 280.127 23C280.12 23 280.112 23 280.105 23C280.097 23 280.09 23 280.082 23C280.075 23 280.067 23 280.059 23C280.052 23 280.044 23 280.036 23C280.028 23 280.021 23 280.013 23C280.005 23 279.997 23 279.989 23C279.981 23 279.973 23 279.965 23C279.957 23 279.949 23 279.941 23C279.933 23 279.925 23 279.916 23C279.908 23 279.9 23 279.892 23C279.883 23 279.875 23 279.867 23C279.858 23 279.85 23 279.841 23C279.833 23 279.824 23 279.816 23C279.807 23 279.798 23 279.79 23C279.781 23 279.772 23 279.764 23C279.755 23 279.746 23 279.737 23C279.728 23 279.72 23 279.711 23C279.702 23 279.693 23 279.684 23C279.675 23 279.666 23 279.656 23C279.647 23 279.638 23 279.629 23C279.62 23 279.611 23 279.601 23C279.592 23 279.583 23 279.573 23C279.564 23 279.554 23 279.545 23C279.536 23 279.526 23 279.516 23C279.507 23 279.497 23 279.488 23C279.478 23 279.468 23 279.459 23C279.449 23 279.439 23 279.429 23C279.419 23 279.41 23 279.4 23C279.39 23 279.38 23 279.37 23C279.36 23 279.35 23 279.34 23C279.33 23 279.32 23 279.309 23C279.299 23 279.289 23 279.279 23C279.268 23 279.258 23 279.248 23C279.237 23 279.227 23 279.217 23C279.206 23 279.196 23 279.185 23C279.175 23 279.164 23 279.153 23C279.143 23 279.132 23 279.122 23C279.111 23 279.1 23 279.089 23C279.079 23 279.068 23 279.057 23C279.046 23 279.035 23 279.024 23C279.013 23 279.002 23 278.991 23C278.98 23 278.969 23 278.958 23C278.947 23 278.936 23 278.924 23C278.913 23 278.902 23 278.891 23C278.879 23 278.868 23 278.857 23C278.845 23 278.834 23 278.822 23C278.811 23 278.799 23 278.788 23C278.776 23 278.764 23 278.753 23C278.741 23 278.729 23 278.718 23C278.706 23 278.694 23 278.682 23C278.671 23 278.659 23 278.647 23C278.635 23 278.623 23 278.611 23C278.599 23 278.587 23 278.575 23C278.563 23 278.551 23 278.539 23C278.526 23 278.514 23 278.502 23C278.49 23 278.477 23 278.465 23C278.453 23 278.44 23 278.428 23C278.416 23 278.403 23 278.391 23C278.378 23 278.366 23 278.353 23C278.34 23 278.328 23 278.315 23C278.303 23 278.29 23 278.277 23C278.264 23 278.252 23 278.239 23C278.226 23 278.213 23 278.2 23C278.187 23 278.174 23 278.161 23C278.148 23 278.135 23 278.122 23C278.109 23 278.096 23 278.083 23C278.069 23 278.056 23 278.043 23C278.03 23 278.016 23 278.003 23C277.99 23 277.976 23 277.963 23C277.95 23 277.936 23 277.923 23C277.909 23 277.896 23 277.882 23C277.868 23 277.855 23 277.841 23C277.827 23 277.814 23 277.8 23C277.786 23 277.772 23 277.759 23C277.745 23 277.731 23 277.717 23C277.703 23 277.689 23 277.675 23C277.661 23 277.647 23 277.633 23C277.619 23 277.605 23 277.591 23C277.576 23 277.562 23 277.548 23C277.534 23 277.52 23 277.505 23C277.491 23 277.476 23 277.462 23C277.448 23 277.433 23 277.419 23C277.404 23 277.39 23 277.375 23C277.361 23 277.346 23 277.331 23C277.317 23 277.302 23 277.287 23C277.272 23 277.258 23 277.243 23C277.228 23 277.213 23 277.198 23C277.183 23 277.168 23 277.153 23C277.138 23 277.123 23 277.108 23C277.093 23 277.078 23 277.063 23C277.048 23 277.033 23 277.018 23C277.002 23 276.987 23 276.972 23C276.956 23 276.941 23 276.926 23C276.91 23 276.895 23 276.88 23C276.864 23 276.849 23 276.833 23C276.817 23 276.802 23 276.786 23C276.771 23 276.755 23 276.739 23C276.724 23 276.708 23 276.692 23C276.676 23 276.66 23 276.645 23C276.629 23 276.613 23 276.597 23C276.581 23 276.565 23 276.549 23C276.533 23 276.517 23 276.501 23C276.485 23 276.469 23 276.452 23C276.436 23 276.42 23 276.404 23C276.387 23 276.371 23 276.355 23C276.338 23 276.322 23 276.306 23C276.289 23 276.273 23 276.256 23C276.24 23 276.223 23 276.207 23C276.19 23 276.174 23 276.157 23C276.14 23 276.124 23 276.107 23C276.09 23 276.073 23 276.056 23C276.04 23 276.023 23 276.006 23C275.989 23 275.972 23 275.955 23C275.938 23 275.921 23 275.904 23C275.887 23 275.87 23 275.853 23C275.836 23 275.819 23 275.801 23C275.784 23 275.767 23 275.75 23C275.732 23 275.715 23 275.698 23C275.68 23 275.663 23 275.646 23C275.628 23 275.611 23 275.593 23C275.576 23 275.558 23 275.541 23C275.523 23 275.505 23 275.488 23C275.47 23 275.452 23 275.435 23C275.417 23 275.399 23 275.381 23C275.363 23 275.346 23 275.328 23C275.31 23 275.292 23 275.274 23C275.256 23 275.238 23 275.22 23C275.202 23 275.184 23 275.166 23C275.148 23 275.129 23 275.111 23C275.093 23 275.075 23 275.056 23C275.038 23 275.02 23 275.002 23C274.983 23 274.965 23 274.946 23C274.928 23 274.91 23 274.891 23C274.873 23 274.854 23 274.835 23C274.817 23 274.798 23 274.78 23C274.761 23 274.742 23 274.724 23C274.705 23 274.686 23 274.667 23C274.648 23 274.63 23 274.611 23C274.592 23 274.573 23 274.554 23C274.535 23 274.516 23 274.497 23C274.478 23 274.459 23 274.44 23C274.421 23 274.402 23 274.382 23C274.363 23 274.344 23 274.325 23C274.306 23 274.286 23 274.267 23C274.248 23 274.228 23 274.209 23C274.189 23 274.17 23 274.151 23C274.131 23 274.112 23 274.092 23C274.072 23 274.053 23 274.033 23C274.014 23 273.994 23 273.974 23C273.955 23 273.935 23 273.915 23C273.895 23 273.876 23 273.856 23C273.836 23 273.816 23 273.796 23C273.776 23 273.756 23 273.736 23C273.716 23 273.696 23 273.676 23C273.656 23 273.636 23 273.616 23C273.596 23 273.576 23 273.555 23C273.535 23 273.515 23 273.495 23C273.474 23 273.454 23 273.434 23C273.413 23 273.393 23 273.373 23C273.352 23 273.332 23 273.311 23C273.291 23 273.27 23 273.25 23C273.229 23 273.208 23 273.188 23C273.167 23 273.146 23 273.126 23C273.105 23 273.084 23 273.063 23C273.043 23 273.022 23 273.001 23C272.98 23 272.959 23 272.938 23C272.917 23 272.896 23 272.875 23C272.854 23 272.833 23 272.812 23C272.791 23 272.77 23 272.749 23C272.728 23 272.707 23 272.685 23C272.664 23 272.643 23 272.622 23C272.6 23 272.579 23 272.558 23C272.536 23 272.515 23 272.494 23C272.472 23 272.451 23 272.429 23C272.408 23 272.386 23 272.365 23C272.343 23 272.321 23 272.3 23C272.278 23 272.257 23 272.235 23C272.213 23 272.191 23 272.17 23C272.148 23 272.126 23 272.104 23C272.082 23 272.06 23 272.038 23C272.017 23 271.995 23 271.973 23C271.951 23 271.929 23 271.907 23C271.885 23 271.862 23 271.84 23C271.818 23 271.796 23 271.774 23C271.752 23 271.729 23 271.707 23C271.685 23 271.663 23 271.64 23C271.618 23 271.595 23 271.573 23C271.551 23 271.528 23 271.506 23C271.483 23 271.461 23 271.438 23C271.416 23 271.393 23 271.371 23C271.348 23 271.325 23 271.303 23C271.28 23 271.257 23 271.234 23C271.212 23 271.189 23 271.166 23C271.143 23 271.12 23 271.098 23C271.075 23 271.052 23 271.029 23C271.006 23 270.983 23 270.96 23C270.937 23 270.914 23 270.891 23C270.868 23 270.844 23 270.821 23C270.798 23 270.775 23 270.752 23C270.728 23 270.705 23 270.682 23C270.659 23 270.635 23 270.612 23C270.589 23 270.565 23 270.542 23C270.518 23 270.495 23 270.471 23C270.448 23 270.424 23 270.401 23C270.377 23 270.354 23 270.33 23C270.306 23 270.283 23 270.259 23C270.235 23 270.212 23 270.188 23C270.164 23 270.14 23 270.116 23C270.093 23 270.069 23 270.045 23C270.021 23 269.997 23 269.973 23C269.949 23 269.925 23 269.901 23C269.877 23 269.853 23 269.829 23C269.805 23 269.781 23 269.757 23C269.732 23 269.708 23 269.684 23C269.66 23 269.635 23 269.611 23C269.587 23 269.562 23 269.538 23C269.514 23 269.489 23 269.465 23C269.441 23 269.416 23 269.392 23C269.367 23 269.343 23 269.318 23C269.293 23 269.269 23 269.244 23C269.22 23 269.195 23 269.17 23C269.146 23 269.121 23 269.096 23C269.071 23 269.047 23 269.022 23C268.997 23 268.972 23 268.947 23C268.922 23 268.897 23 268.873 23C268.848 23 268.823 23 268.798 23C268.773 23 268.748 23 268.722 23C268.697 23 268.672 23 268.647 23C268.622 23 268.597 23 268.572 23C268.546 23 268.521 23 268.496 23C268.471 23 268.445 23 268.42 23C268.395 23 268.369 23 268.344 23C268.319 23 268.293 23 268.268 23C268.242 23 268.217 23 268.191 23C268.166 23 268.14 23 268.115 23C268.089 23 268.063 23 268.038 23C268.012 23 267.986 23 267.961 23C267.935 23 267.909 23 267.883 23C267.858 23 267.832 23 267.806 23C267.78 23 267.754 23 267.728 23C267.703 23 267.677 23 267.651 23C267.625 23 267.599 23 267.573 23C267.547 23 267.521 23 267.495 23C267.468 23 267.442 23 267.416 23C267.39 23 267.364 23 267.338 23C267.311 23 267.285 23 267.259 23C267.233 23 267.206 23 267.18 23C267.154 23 267.127 23 267.101 23C267.074 23 267.048 23 267.022 23C266.995 23 266.969 23 266.942 23C266.916 23 266.889 23 266.862 23C266.836 23 266.809 23 266.783 23C266.756 23 266.729 23 266.703 23C266.676 23 266.649 23 266.622 23C266.596 23 266.569 23 266.542 23C266.515 23 266.488 23 266.461 23C266.435 23 266.408 23 266.381 23C266.354 23 266.327 23 266.3 23C266.273 23 266.246 23 266.219 23C266.191 23 266.164 23 266.137 23C266.11 23 266.083 23 266.056 23C266.029 23 266.001 23 265.974 23C265.947 23 265.92 23 265.892 23C265.865 23 265.838 23 265.81 23C265.783 23 265.755 23 265.728 23C265.701 23 265.673 23 265.646 23C265.618 23 265.591 23 265.563 23C265.536 23 265.508 23 265.48 23C265.453 23 265.425 23 265.397 23C265.37 23 265.342 23 265.314 23C265.287 23 265.259 23 265.231 23C265.203 23 265.175 23 265.148 23C265.12 23 265.092 23 265.064 23C265.036 23 265.008 23 264.98 23C264.952 23 264.924 23 264.896 23C264.868 23 264.84 23 264.812 23C264.784 23 264.756 23 264.728 23C264.7 23 264.671 23 264.643 23C264.615 23 264.587 23 264.559 23C264.53 23 264.502 23 264.474 23C264.445 23 264.417 23 264.389 23C264.36 23 264.332 23 264.303 23C264.275 23 264.247 23 264.218 23C264.19 23 264.161 23 264.132 23C264.104 23 264.075 23 264.047 23C264.018 23 263.99 23 263.961 23C263.932 23 263.904 23 263.875 23C263.846 23 263.817 23 263.789 23C263.76 23 263.731 23 263.702 23C263.673 23 263.644 23 263.616 23C263.587 23 263.558 23 263.529 23C263.5 23 263.471 23 263.442 23C263.413 23 263.384 23 263.355 23C263.326 23 263.297 23 263.268 23C263.238 23 263.209 23 263.18 23C263.151 23 263.122 23 263.092 23C263.063 23 263.034 23 263.005 23C262.975 23 262.946 23 262.917 23C262.887 23 262.858 23 262.829 23C262.799 23 262.77 23 262.74 23C262.711 23 262.681 23 262.652 23C262.622 23 262.593 23 262.563 23C262.534 23 262.504 23 262.475 23C262.445 23 262.415 23 262.386 23C262.356 23 262.326 23 262.297 23C262.267 23 262.237 23 262.207 23C262.178 23 262.148 23 262.118 23C262.088 23 262.058 23 262.028 23C261.998 23 261.968 23 261.939 23C261.909 23 261.879 23 261.849 23C261.819 23 261.789 23 261.759 23C261.728 23 261.698 23 261.668 23C261.638 23 261.608 23 261.578 23C261.548 23 261.517 23 261.487 23C261.457 23 261.427 23 261.397 23C261.366 23 261.336 23 261.306 23C261.275 23 261.245 23 261.215 23C261.184 23 261.154 23 261.123 23C261.093 23 261.062 23 261.032 23C261.001 23 260.971 23 260.94 23C260.91 23 260.879 23 260.849 23C260.818 23 260.788 23 260.757 23C260.726 23 260.696 23 260.665 23C260.634 23 260.603 23 260.573 23C260.542 23 260.511 23 260.48 23C260.45 23 260.419 23 260.388 23C260.357 23 260.326 23 260.295 23C260.264 23 260.233 23 260.202 23C260.171 23 260.14 23 260.109 23C260.078 23 260.047 23 260.016 23C259.985 23 259.954 23 259.923 23C259.892 23 259.861 23 259.83 23C259.798 23 259.767 23 259.736 23C259.705 23 259.674 23 259.642 23C259.611 23 259.58 23 259.548 23C259.517 23 259.486 23 259.454 23C259.423 23 259.392 23 259.36 23C259.329 23 259.297 23 259.266 23C259.234 23 259.203 23 259.171 23C259.14 23 259.108 23 259.077 23C259.045 23 259.013 23 258.982 23C258.95 23 258.919 23 258.887 23C258.855 23 258.823 23 258.792 23C258.76 23 258.728 23 258.696 23C258.665 23 258.633 23 258.601 23C258.569 23 258.537 23 258.505 23C258.474 23 258.442 23 258.41 23C258.378 23 258.346 23 258.314 23C258.282 23 258.25 23 258.218 23C258.186 23 258.154 23 258.122 23C258.09 23 258.057 23 258.025 23C257.993 23 257.961 23 257.929 23C257.897 23 257.864 23 257.832 23C257.8 23 257.768 23 257.735 23C257.703 23 257.671 23 257.639 23C257.606 23 257.574 23 257.542 23C257.509 23 257.477 23 257.444 23C257.412 23 257.379 23 257.347 23C257.314 23 257.282 23 257.249 23C257.217 23 257.184 23 257.152 23C257.119 23 257.087 23 257.054 23C257.021 23 256.989 23 256.956 23C256.923 23 256.891 23 256.858 23C256.825 23 256.793 23 256.76 23C256.727 23 256.694 23 256.661 23C256.629 23 256.596 23 256.563 23C256.53 23 256.497 23 256.464 23C256.431 23 256.398 23 256.365 23C256.332 23 256.3 23 256.267 23C256.234 23 256.2 23 256.167 23C256.134 23 256.101 23 256.068 23C256.035 23 256.002 23 255.969 23C255.936 23 255.903 23 255.869 23C255.836 23 255.803 23 255.77 23C255.736 23 255.703 23 255.67 23C255.637 23 255.603 23 255.57 23C255.537 23 255.503 23 255.47 23C255.437 23 255.403 23 255.37 23C255.336 23 255.303 23 255.269 23C255.236 23 255.202 23 255.169 23C255.135 23 255.102 23 255.068 23C255.035 23 255.001 23 254.967 23C254.934 23 254.9 23 254.867 23C254.833 23 254.799 23 254.766 23C254.732 23 254.698 23 254.664 23C254.631 23 254.597 23 254.563 23C254.529 23 254.495 23 254.462 23C254.428 23 254.394 23 254.36 23C254.326 23 254.292 23 254.258 23C254.224 23 254.19 23 254.156 23C254.122 23 254.089 23 254.054 23C254.02 23 253.986 23 253.952 23C253.918 23 253.884 23 253.85 23C253.816 23 253.782 23 253.748 23C253.714 23 253.679 23 253.645 23C253.611 23 253.577 23 253.543 23C253.508 23 253.474 23 253.44 23C253.406 23 253.371 23 253.337 23C253.303 23 253.268 23 253.234 23C253.199 23 253.165 23 253.131 23C253.096 23 253.062 23 253.027 23C252.993 23 252.958 23 252.924 23C252.889 23 252.855 23 252.82 23C252.786 23 252.751 23 252.717 23C252.682 23 252.647 23 252.613 23C252.578 23 252.544 23 252.509 23C252.474 23 252.439 23 252.405 23C252.37 23 252.335 23 252.301 23C252.266 23 252.231 23 252.196 23C252.161 23 252.127 23 252.092 23C252.057 23 252.022 23 251.987 23C251.952 23 251.917 23 251.882 23C251.847 23 251.812 23 251.778 23C251.743 23 251.708 23 251.673 23C251.638 23 251.602 23 251.567 23C251.532 23 251.497 23 251.462 23C251.427 23 251.392 23 251.357 23C251.322 23 251.287 23 251.251 23C251.216 23 251.181 23 251.146 23C251.111 23 251.075 23 251.04 23C251.005 23 250.969 23 250.934 23C250.899 23 250.864 23 250.828 23C250.793 23 250.757 23 250.722 23C250.687 23 250.651 23 250.616 23C250.58 23 250.545 23 250.51 23C250.474 23 250.439 23 250.403 23C250.368 23 250.332 23 250.296 23C250.261 23 250.225 23 250.19 23C250.154 23 250.119 23 250.083 23C250.047 23 250.012 23 249.976 23C249.94 23 249.905 23 249.869 23C249.833 23 249.797 23 249.762 23C249.726 23 249.69 23 249.654 23C249.619 23 249.583 23 249.547 23C249.511 23 249.475 23 249.439 23V27Z" fill="url(#paint0_linear_26_699)"/>
<defs>
<linearGradient id="paint0_linear_26_699" x1="280.995" y1="37" x2="-10.7589" y2="37" gradientUnits="userSpaceOnUse">
<stop stop-color="#B5EDFF"/>
<stop offset="0.286458" stop-color="#00CBFF"/>
<stop offset="0.859375" stop-color="#6721FF"/>
<stop offset="1" stop-color="#C8BDFF"/>
</linearGradient>
</defs>
</svg>
