<svg width="27" height="27" viewBox="0 0 27 27" fill="none" xmlns="http://www.w3.org/2000/svg">
<g clip-path="url(#clip0_2543_7788)">
<rect x="0.603516" y="0.206543" width="26.3854" height="26.3854" rx="13.1927" fill="white"/>
<path d="M13.7962 0.206543C17.2952 0.206543 20.6508 1.59649 23.1249 4.0706C25.599 6.54471 26.9889 9.90033 26.9889 13.3993C26.9889 16.8982 25.599 20.2538 23.1249 22.7279C20.6508 25.202 17.2952 26.592 13.7962 26.592C10.2973 26.592 6.94169 25.202 4.46757 22.7279C1.99346 20.2538 0.603516 16.8982 0.603516 13.3993C0.603516 9.90033 1.99346 6.54471 4.46757 4.0706C6.94169 1.59649 10.2973 0.206543 13.7962 0.206543V0.206543ZM19.3339 9.5173C19.1973 9.38138 19.0175 9.29756 18.8256 9.28039C18.6337 9.26322 18.4419 9.31378 18.2834 9.4233L18.168 9.5173L12.1471 15.5398L9.43274 12.8237L9.3173 12.7281C9.15847 12.6187 8.96631 12.5684 8.77424 12.586C8.58217 12.6036 8.40235 12.688 8.26606 12.8245C8.12978 12.9609 8.04565 13.1409 8.02832 13.333C8.01098 13.5251 8.06154 13.7172 8.17119 13.8758L8.26518 13.9913L11.5634 17.2895L11.6788 17.3835C11.8165 17.4785 11.9798 17.5294 12.1471 17.5294C12.3144 17.5294 12.4778 17.4785 12.6155 17.3835L12.7309 17.2878L19.3339 10.6849L19.4295 10.5694C19.5393 10.4106 19.5898 10.2183 19.5723 10.026C19.5548 9.83377 19.4705 9.65373 19.3339 9.5173V9.5173Z" fill="url(#paint0_linear_2543_7788)"/>
</g>
<defs>
<linearGradient id="paint0_linear_2543_7788" x1="26.989" y1="0.206643" x2="-4.64883" y2="16.2053" gradientUnits="userSpaceOnUse">
<stop stop-color="#B5EDFF"/>
<stop offset="0.286458" stop-color="#00CBFF"/>
<stop offset="0.859375" stop-color="#6721FF"/>
</linearGradient>
<clipPath id="clip0_2543_7788">
<rect x="0.603516" y="0.206543" width="26.3854" height="26.3854" rx="13.1927" fill="white"/>
</clipPath>
</defs>
</svg>
