<svg width="32" height="32" viewBox="0 0 32 32" fill="none" xmlns="http://www.w3.org/2000/svg">
<path d="M16 0C20.2435 0 24.3131 1.68571 27.3137 4.68629C30.3143 7.68687 32 11.7565 32 16C32 20.2435 30.3143 24.3131 27.3137 27.3137C24.3131 30.3143 20.2435 32 16 32C11.7565 32 7.68687 30.3143 4.68629 27.3137C1.68571 24.3131 0 20.2435 0 16C0 11.7565 1.68571 7.68687 4.68629 4.68629C7.68687 1.68571 11.7565 0 16 0ZM22.716 11.292C22.5504 11.1272 22.3323 11.0255 22.0996 11.0047C21.8669 10.9838 21.6342 11.0452 21.442 11.178L21.302 11.292L14 18.596L10.708 15.302L10.568 15.186C10.3754 15.0533 10.1423 14.9923 9.90937 15.0137C9.67643 15.035 9.45835 15.1374 9.29307 15.3029C9.12778 15.4684 9.02575 15.6867 9.00473 15.9196C8.98371 16.1526 9.04502 16.3856 9.178 16.578L9.292 16.718L13.292 20.718L13.432 20.832C13.599 20.9473 13.7971 21.009 14 21.009C14.2029 21.009 14.401 20.9473 14.568 20.832L14.708 20.716L22.716 12.708L22.832 12.568C22.9651 12.3754 23.0264 12.1422 23.0052 11.909C22.984 11.6758 22.8817 11.4575 22.716 11.292Z" fill="url(#paint0_linear_1027_1012)"/>
<defs>
<linearGradient id="paint0_linear_1027_1012" x1="32" y1="32" x2="-1.46405" y2="32" gradientUnits="userSpaceOnUse">
<stop stop-color="#B5EDFF"/>
<stop offset="0.286458" stop-color="#00CBFF"/>
<stop offset="0.859375" stop-color="#6721FF"/>
<stop offset="1" stop-color="#C8BDFF"/>
</linearGradient>
</defs>
</svg>
