<svg width="14" height="10" viewBox="0 0 14 10" fill="none" xmlns="http://www.w3.org/2000/svg">
<path d="M12.6875 0.1875H1.3125C1.07051 0.1875 0.875 0.383008 0.875 0.625V9.375C0.875 9.61699 1.07051 9.8125 1.3125 9.8125H12.6875C12.9295 9.8125 13.125 9.61699 13.125 9.375V0.625C13.125 0.383008 12.9295 0.1875 12.6875 0.1875ZM1.85938 1.17188H12.1406V2.8125H1.85938V1.17188ZM12.1406 8.82812H1.85938V4.01562H12.1406V8.82812ZM8.90039 7.95312H11.1562C11.2164 7.95312 11.2656 7.90391 11.2656 7.84375V6.85938C11.2656 6.79922 11.2164 6.75 11.1562 6.75H8.90039C8.84023 6.75 8.79102 6.79922 8.79102 6.85938V7.84375C8.79102 7.90391 8.84023 7.95312 8.90039 7.95312Z" fill="black"/>
</svg>
