<svg width="12" height="14" viewBox="0 0 12 14" fill="none" xmlns="http://www.w3.org/2000/svg">
<path d="M5.4165 13.7608V11.6608C2.494 11.5092 0.166504 9.08251 0.166504 6.12501C0.166504 3.06834 2.6515 0.583344 5.70817 0.583344C8.76484 0.583344 11.2498 3.06834 11.2498 6.12501C11.2498 9.01251 9.24317 11.9175 6.25067 13.3583L5.4165 13.7608ZM5.70817 1.75001C3.29317 1.75001 1.33317 3.71001 1.33317 6.12501C1.33317 8.54001 3.29317 10.5 5.70817 10.5H6.58317V11.8417C8.7065 10.5 10.0832 8.29501 10.0832 6.12501C10.0832 3.71001 8.12317 1.75001 5.70817 1.75001ZM5.12484 8.45834H6.2915V9.62501H5.12484V8.45834ZM6.2915 7.58334H5.12484C5.12484 5.68751 6.87484 5.83334 6.87484 4.66668C6.87484 4.02501 6.34984 3.50001 5.70817 3.50001C5.0665 3.50001 4.5415 4.02501 4.5415 4.66668H3.37484C3.37484 3.37751 4.419 2.33334 5.70817 2.33334C6.99734 2.33334 8.0415 3.37751 8.0415 4.66668C8.0415 6.12501 6.2915 6.27084 6.2915 7.58334Z" fill="black"/>
</svg>
