<svg width="18" height="19" viewBox="0 0 18 19" fill="none" xmlns="http://www.w3.org/2000/svg">
<path d="M10.3264 17.1629C10.4782 17.0885 10.6061 16.9731 10.6957 16.8297C10.7853 16.6863 10.833 16.5207 10.8333 16.3517V11.475C10.8333 11.2348 10.9296 11.0038 11.1019 10.8333L16.7128 5.28385C16.8828 5.11608 17.0178 4.91627 17.11 4.69599C17.2022 4.4757 17.2498 4.23932 17.25 4.00052V1.65752C17.2495 1.53771 17.2254 1.41916 17.1791 1.30868C17.1327 1.1982 17.065 1.09794 16.9799 1.01364C16.8947 0.929352 16.7938 0.862678 16.6829 0.817441C16.5719 0.772205 16.4531 0.749292 16.3333 0.750017H1.66667C1.15975 0.750017 0.75 1.15518 0.75 1.65752V4.00052C0.75 4.48177 0.943417 4.94377 1.28717 5.28385L6.89808 10.8333C6.9831 10.9172 7.05061 11.0171 7.09672 11.1273C7.14282 11.2374 7.1666 11.3556 7.16667 11.475V17.2592C7.16667 17.9329 7.8835 18.3711 8.49308 18.0695L10.3264 17.1629Z" fill="white"/>
</svg>
