<svg width="24" height="23" viewBox="0 0 24 23" fill="none" xmlns="http://www.w3.org/2000/svg">
<path d="M20.4375 10.6465H6.72423L14.932 3.81836C15.0633 3.7083 14.9836 3.50391 14.8102 3.50391H12.7359C12.6445 3.50391 12.5578 3.53535 12.4899 3.5915L3.63282 10.9564C3.5517 11.0238 3.48664 11.1071 3.44205 11.2007C3.39747 11.2943 3.37439 11.396 3.37439 11.4989C3.37439 11.6018 3.39747 11.7034 3.44205 11.797C3.48664 11.8906 3.5517 11.9739 3.63282 12.0413L12.5414 19.4512C12.5766 19.4804 12.6188 19.4961 12.6633 19.4961H14.8078C14.9813 19.4961 15.0609 19.2895 14.9297 19.1816L6.72423 12.3535H20.4375C20.5406 12.3535 20.625 12.2727 20.625 12.1738V10.8262C20.625 10.7273 20.5406 10.6465 20.4375 10.6465Z" fill="#2B2F42"/>
</svg>
