<svg width="223" height="25" viewBox="0 0 223 25" fill="none" xmlns="http://www.w3.org/2000/svg">
<path d="M0.926984 23.8235V0.5667H19.0446V6.0963H7.72514V9.25143H17.1905V14.3582H7.72514V18.0012H19.3698V23.8235H0.926984ZM28.143 23.8235V15.6593L20.1739 0.5667H27.5575L30.0296 5.7385C30.2898 6.25894 30.55 6.83358 30.8102 7.46244C31.0704 8.09129 31.2656 8.5792 31.3957 8.92615L31.5909 9.47911H31.6559C32.1547 8.15635 32.6859 6.90948 33.2497 5.7385L35.7218 0.5667H42.9428L34.9411 15.6593V23.8235H28.143ZM44.2858 23.8235V0.5667H62.4034V6.0963H51.084V9.25143H60.5493V14.3582H51.084V18.0012H62.7286V23.8235H44.2858ZM94.1676 20.9937C91.9991 23.2489 89.1367 24.3765 85.5804 24.3765C82.0241 24.3765 79.1726 23.2489 77.0258 20.9937C74.879 18.7168 73.8056 15.811 73.8056 12.2764C73.8056 8.74183 74.879 5.83608 77.0258 3.55919C79.1726 1.2823 82.0241 0.143848 85.5804 0.143848C89.1367 0.143848 91.9991 1.2823 94.1676 3.55919C96.336 5.83608 97.4203 8.74183 97.4203 12.2764C97.4203 15.811 96.336 18.7168 94.1676 20.9937ZM81.9699 17.0904C82.8156 18.3265 84.03 18.9445 85.613 18.9445C87.1959 18.9445 88.4103 18.3265 89.256 17.0904C90.1017 15.8544 90.5245 14.2497 90.5245 12.2764C90.5245 10.3031 90.1017 8.69847 89.256 7.46244C88.4103 6.20472 87.1959 5.57587 85.613 5.57587C84.03 5.57587 82.8156 6.20472 81.9699 7.46244C81.1242 8.69847 80.7014 10.3031 80.7014 12.2764C80.7014 14.2497 81.1242 15.8544 81.9699 17.0904ZM99.3023 23.8235V0.5667H117.225V6.29146H106.1V10.0971H115.306V15.3665H106.1V23.8235H99.3023ZM128.875 23.8235V0.5667H146.993V6.0963H135.673V9.25143H145.139V14.3582H135.673V18.0012H147.318V23.8235H128.875ZM160.132 24.3765C156.619 24.3765 153.779 23.2381 151.61 20.9612C149.442 18.6843 148.357 15.7894 148.357 12.2764C148.357 8.76352 149.452 5.86861 151.643 3.59172C153.833 1.29314 156.663 0.143848 160.132 0.143848C162.713 0.143848 164.881 0.75102 166.638 1.96536C169.066 3.63509 170.432 6.04209 170.736 9.18637H163.938C163.851 8.23224 163.439 7.41907 162.702 6.74684C161.986 6.07461 161.097 5.7385 160.035 5.7385C158.473 5.7385 157.281 6.33483 156.457 7.52749C155.654 8.72015 155.253 10.3031 155.253 12.2764C155.253 14.2064 155.687 15.7785 156.554 16.9929C157.422 18.2072 158.603 18.8144 160.1 18.8144C161.249 18.8144 162.181 18.4783 162.897 17.806C163.613 17.1338 164.025 16.2556 164.133 15.1713H170.996C170.801 17.7085 169.793 19.8552 167.971 21.6117C166.063 23.4549 163.45 24.3765 160.132 24.3765ZM192.098 20.9937C189.93 23.2489 187.067 24.3765 183.511 24.3765C179.955 24.3765 177.103 23.2489 174.956 20.9937C172.81 18.7168 171.736 15.811 171.736 12.2764C171.736 8.74183 172.81 5.83608 174.956 3.55919C177.103 1.2823 179.955 0.143848 183.511 0.143848C187.067 0.143848 189.93 1.2823 192.098 3.55919C194.267 5.83608 195.351 8.74183 195.351 12.2764C195.351 15.811 194.267 18.7168 192.098 20.9937ZM179.901 17.0904C180.746 18.3265 181.961 18.9445 183.544 18.9445C185.127 18.9445 186.341 18.3265 187.187 17.0904C188.032 15.8544 188.455 14.2497 188.455 12.2764C188.455 10.3031 188.032 8.69847 187.187 7.46244C186.341 6.20472 185.127 5.57587 183.544 5.57587C181.961 5.57587 180.746 6.20472 179.901 7.46244C179.055 8.69847 178.632 10.3031 178.632 12.2764C178.632 14.2497 179.055 15.8544 179.901 17.0904ZM197.233 23.8235V0.5667H206.08L209.658 13.5775H209.723L213.301 0.5667H222.214V23.8235H216.066V9.25143H216.001L212.13 23.8235H207.154L203.283 9.25143H203.218V23.8235H197.233Z" fill="url(#paint0_linear_1573_901)"/>
<defs>
<linearGradient id="paint0_linear_1573_901" x1="230.999" y1="37.0001" x2="-11.0618" y2="37.0001" gradientUnits="userSpaceOnUse">
<stop stop-color="#B5EDFF"/>
<stop offset="0.286458" stop-color="#00CBFF"/>
<stop offset="0.859375" stop-color="#6721FF"/>
<stop offset="1" stop-color="#C8BDFF"/>
</linearGradient>
</defs>
</svg>
