<svg width="20" height="20" viewBox="0 0 20 20" fill="none" xmlns="http://www.w3.org/2000/svg">
<path d="M20 17.6879L19.7718 17.4866C19.1245 16.9098 18.5578 16.2484 18.0872 15.5201C17.5733 14.5151 17.2653 13.4176 17.1812 12.2919V8.97651C17.1857 7.20846 16.5443 5.49965 15.3777 4.17112C14.211 2.8426 12.5994 1.98581 10.8456 1.76174V0.895973C10.8456 0.658346 10.7512 0.430452 10.5832 0.262425C10.4152 0.094397 10.1873 0 9.94966 0C9.71204 0 9.48414 0.094397 9.31612 0.262425C9.14809 0.430452 9.05369 0.658346 9.05369 0.895973V1.77517C7.31561 2.01539 5.72347 2.87735 4.57217 4.20141C3.42086 5.52547 2.78841 7.22191 2.79195 8.97651V12.2919C2.70789 13.4176 2.39985 14.5151 1.88591 15.5201C1.42341 16.2465 0.865903 16.9079 0.228188 17.4866L0 17.6879V19.5805H20V17.6879Z" fill="white"/>
</svg>
