<svg width="71" height="71" viewBox="0 0 71 71" fill="none" xmlns="http://www.w3.org/2000/svg">
<path d="M35.5 5.875C41.3593 5.875 47.0869 7.61248 51.9588 10.8677C56.8306 14.1229 60.6277 18.7497 62.8699 24.163C65.1122 29.5763 65.6988 35.5329 64.5557 41.2795C63.4127 47.0262 60.5912 52.3049 56.448 56.448C52.3049 60.5912 47.0262 63.4127 41.2795 64.5558C35.5328 65.6989 29.5763 65.1122 24.163 62.8699C18.7497 60.6277 14.1229 56.8306 10.8677 51.9588C7.61246 47.087 5.87499 41.3593 5.87499 35.5C5.87499 27.643 8.99618 20.1077 14.5519 14.552C20.1077 8.9962 27.6429 5.875 35.5 5.875ZM35.5 0.9375C28.6642 0.9375 21.9819 2.96456 16.2981 6.76233C10.6143 10.5601 6.18435 15.958 3.5684 22.2735C0.952445 28.589 0.267992 35.5383 1.60159 42.2428C2.9352 48.9473 6.22695 55.1057 11.0606 59.9394C15.8943 64.773 22.0527 68.0648 28.7572 69.3984C35.4616 70.732 42.411 70.0475 48.7265 67.4316C55.042 64.8156 60.4399 60.3857 64.2377 54.7019C68.0354 49.0181 70.0625 42.3358 70.0625 35.5C70.0625 26.3335 66.4211 17.5423 59.9394 11.0606C53.4576 4.5789 44.6665 0.9375 35.5 0.9375Z" fill="white"/>
</svg>
