<svg width="40" height="40" viewBox="0 0 40 40" fill="none" xmlns="http://www.w3.org/2000/svg">
<path d="M19.9999 3.33334C10.7999 3.33334 3.33325 10.8 3.33325 20C3.33325 29.2 10.7999 36.6667 19.9999 36.6667C29.1999 36.6667 36.6666 29.2 36.6666 20C36.6666 10.8 29.1999 3.33334 19.9999 3.33334ZM19.9999 8.33334C22.7666 8.33334 24.9999 10.5667 24.9999 13.3333C24.9999 16.1 22.7666 18.3333 19.9999 18.3333C17.2333 18.3333 14.9999 16.1 14.9999 13.3333C14.9999 10.5667 17.2333 8.33334 19.9999 8.33334ZM19.9999 32C18.0197 32 16.0702 31.51 14.3254 30.5736C12.5805 29.6372 11.0945 28.2835 9.99992 26.6333C10.0499 23.3167 16.6666 21.5 19.9999 21.5C23.3166 21.5 29.9499 23.3167 29.9999 26.6333C28.9053 28.2835 27.4193 29.6372 25.6745 30.5736C23.9296 31.51 21.9802 32 19.9999 32Z" fill="url(#paint0_linear_2674_1506)"/>
<defs>
<linearGradient id="paint0_linear_2674_1506" x1="3.33325" y1="36.6667" x2="36.6666" y2="3.33334" gradientUnits="userSpaceOnUse">
<stop stop-color="#00CBFF"/>
<stop offset="1" stop-color="#72E2FF"/>
</linearGradient>
</defs>
</svg>
