<svg width="34" height="34" viewBox="0 0 34 34" fill="none" xmlns="http://www.w3.org/2000/svg">
<path d="M17 0.333344C7.79998 0.333344 0.333313 7.80001 0.333313 17C0.333313 26.2 7.79998 33.6667 17 33.6667C26.2 33.6667 33.6666 26.2 33.6666 17C33.6666 7.80001 26.2 0.333344 17 0.333344ZM17 5.33334C19.7666 5.33334 22 7.56668 22 10.3333C22 13.1 19.7666 15.3333 17 15.3333C14.2333 15.3333 12 13.1 12 10.3333C12 7.56668 14.2333 5.33334 17 5.33334ZM17 29C15.0197 29 13.0703 28.51 11.3254 27.5736C9.5806 26.6372 8.09461 25.2835 6.99998 23.6333C7.04998 20.3167 13.6666 18.5 17 18.5C20.3166 18.5 26.95 20.3167 27 23.6333C25.9054 25.2835 24.4194 26.6372 22.6745 27.5736C20.9297 28.51 18.9802 29 17 29Z" fill="#00CBFF"/>
</svg>
