<svg width="22" height="21" viewBox="0 0 22 21" fill="none" xmlns="http://www.w3.org/2000/svg">
<path d="M4.51201 20.736C4.40001 20.736 4.28801 20.68 4.17601 20.624C3.95201 20.456 3.89601 20.232 3.95201 20.008L6.13601 13.288L0.424008 9.088C0.200008 8.92 0.144008 8.696 0.200008 8.472C0.256008 8.248 0.480008 8.08 0.760008 8.08H7.87201L10 1.304C10.056 1.08 10.28 0.912003 10.56 0.912003C10.84 0.912003 11.008 1.08 11.12 1.304L13.304 8.08H20.416C20.64 8.08 20.864 8.192 20.976 8.416C21.088 8.64 20.976 8.92 20.752 9.032L15.04 13.176L17.224 19.896C17.28 20.12 17.224 20.4 17 20.512C16.776 20.624 16.552 20.68 16.328 20.512L10.56 16.48L4.84801 20.624C4.73601 20.68 4.62401 20.736 4.51201 20.736ZM10.56 15.192C10.672 15.192 10.784 15.248 10.896 15.304L15.544 18.72L13.752 13.232C13.696 13.008 13.752 12.728 13.976 12.616L18.624 9.2H12.856C12.632 9.2 12.408 9.032 12.296 8.808L10.56 3.32L8.76801 8.808C8.71201 9.032 8.48801 9.2 8.20801 9.2H2.44001L7.08801 12.616C7.31201 12.784 7.36801 13.008 7.31201 13.232L5.57601 18.72L10.224 15.304C10.336 15.248 10.448 15.192 10.56 15.192Z" fill="#2B2F42"/>
</svg>
