<svg width="12" height="12" viewBox="0 0 12 12" fill="none" xmlns="http://www.w3.org/2000/svg">
<path d="M7.0618 11.8333H4.93847C4.80543 11.8333 4.67638 11.7879 4.57272 11.7045C4.46906 11.6211 4.39702 11.5048 4.36855 11.3748L4.13114 10.2758C3.81442 10.137 3.51411 9.96351 3.23572 9.75841L2.16414 10.0997C2.0373 10.1401 1.90044 10.1359 1.77629 10.0879C1.65214 10.0398 1.54817 9.95072 1.48164 9.83541L0.417636 7.99732C0.351804 7.8819 0.327092 7.74755 0.347544 7.61626C0.367996 7.48497 0.4324 7.3645 0.530219 7.27457L1.36147 6.51624C1.32367 6.17272 1.32367 5.82609 1.36147 5.48257L0.530219 4.72599C0.432261 4.63602 0.367769 4.51545 0.347315 4.38403C0.32686 4.25261 0.351655 4.11814 0.417636 4.00266L1.4793 2.16341C1.54583 2.04809 1.64981 1.959 1.77396 1.91093C1.89811 1.86286 2.03496 1.85871 2.1618 1.89916L3.23339 2.24041C3.37572 2.13541 3.52389 2.03741 3.67672 1.94874C3.8243 1.86591 3.97597 1.79066 4.13114 1.72357L4.36914 0.62574C4.39747 0.495772 4.46937 0.379391 4.57292 0.295893C4.67647 0.212396 4.80545 0.166796 4.93847 0.166656H7.0618C7.19482 0.166796 7.3238 0.212396 7.42735 0.295893C7.5309 0.379391 7.6028 0.495772 7.63114 0.62574L7.87147 1.72416C8.188 1.86293 8.48812 2.03647 8.7663 2.24157L9.83847 1.90032C9.96523 1.86002 10.102 1.86426 10.226 1.91232C10.35 1.96038 10.4539 2.04938 10.5204 2.16457L11.5821 4.00382C11.7174 4.24124 11.6707 4.54166 11.4695 4.72657L10.6382 5.48491C10.676 5.82843 10.676 6.17505 10.6382 6.51857L11.4695 7.27691C11.6707 7.46241 11.7174 7.76224 11.5821 7.99966L10.5204 9.83891C10.4539 9.95422 10.3499 10.0433 10.2257 10.0914C10.1016 10.1394 9.96472 10.1436 9.83789 10.1032L8.7663 9.76191C8.48813 9.96686 8.188 10.1402 7.87147 10.2787L7.63114 11.3748C7.60269 11.5047 7.53073 11.6209 7.4272 11.7043C7.32366 11.7877 7.19474 11.8332 7.0618 11.8333ZM3.44514 8.46691L3.92347 8.81691C4.03139 8.89624 4.14339 8.96916 4.26005 9.03566C4.36972 9.09924 4.48172 9.15641 4.5978 9.20832L5.14205 9.44691L5.40864 10.6667H6.5928L6.85939 9.44632L7.40364 9.20774C7.64105 9.10274 7.8668 8.97266 8.07622 8.81924L8.55455 8.46924L9.74572 8.84841L10.3378 7.82291L9.41439 6.98116L9.47972 6.39082C9.50889 6.13241 9.50889 5.87166 9.47972 5.61382L9.41439 5.02349L10.3384 4.17999L9.74572 3.15391L8.55514 3.53307L8.07622 3.18307C7.86669 3.02889 7.6412 2.89767 7.40364 2.79166L6.85939 2.55307L6.5928 1.33332H5.40864L5.1403 2.55366L4.5978 2.79166C4.35991 2.89584 4.13433 3.02614 3.92522 3.18016L3.4463 3.53016L2.2563 3.15099L1.66305 4.17999L2.58647 5.02057L2.52114 5.61149C2.49197 5.86991 2.49197 6.13066 2.52114 6.38849L2.58647 6.97882L1.66305 7.82057L2.25514 8.84607L3.44514 8.46691V8.46691ZM5.9978 8.33332C5.37896 8.33332 4.78547 8.08749 4.34789 7.64991C3.9103 7.21232 3.66447 6.61883 3.66447 5.99999C3.66447 5.38115 3.9103 4.78766 4.34789 4.35007C4.78547 3.91249 5.37896 3.66666 5.9978 3.66666C6.61664 3.66666 7.21013 3.91249 7.64772 4.35007C8.0853 4.78766 8.33114 5.38115 8.33114 5.99999C8.33114 6.61883 8.0853 7.21232 7.64772 7.64991C7.21013 8.08749 6.61664 8.33332 5.9978 8.33332ZM5.9978 4.83332C5.76934 4.83355 5.54598 4.90086 5.35542 5.02688C5.16487 5.1529 5.01551 5.3321 4.92587 5.54224C4.83623 5.75238 4.81026 5.98421 4.85119 6.20897C4.89211 6.43374 4.99813 6.64154 5.15608 6.8066C5.31403 6.97166 5.51697 7.08671 5.73971 7.13748C5.96246 7.18825 6.19521 7.17251 6.40909 7.0922C6.62297 7.01189 6.80856 6.87056 6.94284 6.68573C7.07713 6.5009 7.15419 6.28072 7.16447 6.05249V6.28582V5.99999C7.16447 5.69057 7.04155 5.39382 6.82276 5.17503C6.60397 4.95624 6.30722 4.83332 5.9978 4.83332Z" fill="black"/>
</svg>
