<svg width="18" height="18" viewBox="0 0 18 18" fill="none" xmlns="http://www.w3.org/2000/svg">
<path fill-rule="evenodd" clip-rule="evenodd" d="M9.43745 3.82481C9.43745 3.6799 9.37988 3.54092 9.27741 3.43845C9.17494 3.33598 9.03596 3.27841 8.89105 3.27841H1.63921C1.20446 3.27841 0.787523 3.45111 0.480112 3.75852C0.172701 4.06593 0 4.48287 0 4.91762L0 15.8457C0 16.2804 0.172701 16.6973 0.480112 17.0047C0.787523 17.3122 1.20446 17.4849 1.63921 17.4849H12.5672C13.002 17.4849 13.4189 17.3122 13.7263 17.0047C14.0337 16.6973 14.2064 16.2804 14.2064 15.8457V8.59381C14.2064 8.44889 14.1489 8.30991 14.0464 8.20744C13.9439 8.10497 13.805 8.04741 13.66 8.04741C13.5151 8.04741 13.3762 8.10497 13.2737 8.20744C13.1712 8.30991 13.1136 8.44889 13.1136 8.59381V15.8457C13.1136 15.9906 13.0561 16.1295 12.9536 16.232C12.8511 16.3345 12.7122 16.3921 12.5672 16.3921H1.63921C1.49429 16.3921 1.35531 16.3345 1.25284 16.232C1.15037 16.1295 1.0928 15.9906 1.0928 15.8457V4.91762C1.0928 4.7727 1.15037 4.63372 1.25284 4.53125C1.35531 4.42878 1.49429 4.37122 1.63921 4.37122H8.89105C9.03596 4.37122 9.17494 4.31365 9.27741 4.21118C9.37988 4.10871 9.43745 3.96973 9.43745 3.82481Z" fill="#2B2F42"/>
<path fill-rule="evenodd" clip-rule="evenodd" d="M17.4849 0.546402C17.4849 0.401487 17.4273 0.262508 17.3248 0.160037C17.2224 0.0575672 17.0834 0 16.9385 0L11.4745 0C11.3295 0 11.1906 0.0575672 11.0881 0.160037C10.9856 0.262508 10.9281 0.401487 10.9281 0.546402C10.9281 0.691316 10.9856 0.830296 11.0881 0.932766C11.1906 1.03524 11.3295 1.0928 11.4745 1.0928H15.6195L6.71639 9.99478C6.66559 10.0456 6.62529 10.1059 6.5978 10.1723C6.5703 10.2386 6.55615 10.3098 6.55615 10.3816C6.55615 10.4535 6.5703 10.5246 6.5978 10.591C6.62529 10.6574 6.66559 10.7177 6.71639 10.7685C6.76719 10.8193 6.82751 10.8596 6.89388 10.8871C6.96026 10.9146 7.0314 10.9287 7.10324 10.9287C7.17509 10.9287 7.24623 10.9146 7.31261 10.8871C7.37898 10.8596 7.43929 10.8193 7.4901 10.7685L16.3921 1.86542V6.01042C16.3921 6.15533 16.4496 6.29431 16.5521 6.39678C16.6546 6.49925 16.7936 6.55682 16.9385 6.55682C17.0834 6.55682 17.2224 6.49925 17.3248 6.39678C17.4273 6.29431 17.4849 6.15533 17.4849 6.01042V0.546402Z" fill="#2B2F42"/>
</svg>
