<svg width="20" height="13" viewBox="0 0 20 13" fill="none" xmlns="http://www.w3.org/2000/svg">
<path d="M0.8 0.452591C0.35826 0.452591 0 0.797486 0 1.22296V11.777C0 12.2025 0.35844 12.5474 0.8 12.5474H19.2C19.6417 12.5474 20 12.2025 20 11.777V1.22296C20 0.797505 19.6416 0.452591 19.2 0.452591H0.8ZM11.945 4.05708C12.4318 4.05708 12.8219 4.16061 13.0706 4.25689L12.9006 5.28666L12.7881 5.23189C12.5564 5.13561 12.2587 5.04296 11.8481 5.04953C11.3566 5.04953 11.1294 5.26067 11.1294 5.45821C11.1265 5.68079 11.3949 5.82758 11.8337 6.04741C12.5581 6.38656 12.8929 6.79779 12.8881 7.33837C12.8784 8.32477 12.0217 8.96218 10.7019 8.96218C10.1388 8.95621 9.59636 8.84142 9.30312 8.70879L9.47938 7.64471L9.64126 7.72055C10.0536 7.89797 10.3206 7.96973 10.8231 7.96973C11.184 7.96973 11.5713 7.82423 11.5744 7.5057C11.5767 7.2977 11.4125 7.1494 10.9237 6.91648C10.4475 6.68914 9.81614 6.30833 9.82314 5.62551C9.83058 4.70182 10.7044 4.05708 11.945 4.05708ZM1.76874 4.20815H3.79562C4.06856 4.21808 4.28892 4.30271 4.365 4.58792L4.80188 6.7594C4.80194 6.75959 4.8018 6.76038 4.80188 6.7606L4.93312 7.41121L6.16374 4.20815H7.495L5.51624 8.89658L4.18624 8.89778L3.1275 5.11453C3.75746 5.4359 4.29378 5.80774 4.60438 6.31944C4.5243 6.15753 4.41878 5.97476 4.28376 5.79463C4.12652 5.58486 3.78694 5.31401 3.645 5.19879C3.1504 4.79729 2.4787 4.47302 1.75312 4.30144L1.76874 4.20815ZM8.02438 4.21356H9.32626L8.51186 8.89477H7.21L8.02438 4.21356ZM15.3775 4.21356H16.3638L17.3963 8.89477H16.2125C16.2125 8.89477 16.0951 8.35698 16.0569 8.193C15.8708 8.193 14.5695 8.19121 14.4231 8.19121C14.3736 8.31794 14.1544 8.89475 14.1544 8.89475H12.815L14.7094 4.60236C14.8435 4.29734 15.0721 4.21356 15.3775 4.21356ZM15.4744 5.47263C15.4103 5.64676 15.2988 5.92794 15.3062 5.9156C15.3062 5.9156 14.9055 6.94481 14.8006 7.21199L15.8537 7.21138C15.7559 6.765 15.658 6.31864 15.56 5.8723L15.4744 5.47267V5.47263Z" fill="black"/>
</svg>
